<svg xmlns="http://www.w3.org/2000/svg" width="800" height="600" viewBox="0 0 800 600">
  <defs>
    <linearGradient id="bg1" x1="0" y1="0" x2="1" y2="1">
      <stop offset="0" stop-color="#d9dbc8"/>
      <stop offset="1" stop-color="#b9c0a2"/>
    </linearGradient>
  </defs>
  <rect width="800" height="600" fill="url(#bg1)"/>
  <path d="M0 120 C120 70 210 140 360 95 C520 45 640 120 800 75 L800 220 L0 220Z" fill="#a7ae90" opacity="0.8"/>
  <path d="M0 360 C170 300 330 420 520 340 C650 285 730 340 800 315 L800 480 L0 480Z" fill="#c6ccb0" opacity="0.9"/>
  <path d="M40 520 C150 500 270 560 390 520 C530 470 650 560 760 530" stroke="#8f9878" stroke-width="26" fill="none" stroke-linecap="round" opacity="0.65"/>
  <text x="36" y="72" font-family="Trebuchet MS" font-size="44" fill="#4f5742">Anime Style</text>
</svg>
